<svg xmlns="http://www.w3.org/2000/svg" xmlns:xlink="http://www.w3.org/1999/xlink" width="24px" height="24px" viewBox="0 0 24 24" version="1.1">
    <g id="Page-1-Copy" stroke="none" stroke-width="1" fill="none" fill-rule="evenodd">
        <g id="ic_fav_search_24" fill-rule="nonzero" fill="#757575">
            <path d="M5,10.5 C5,13.5375661 7.46243388,16 10.5,16 C13.5375661,16 16,13.5375661 16,10.5 C16,7.46243388 13.5375661,5 10.5,5 C9.94771525,5 9.5,4.55228475 9.5,4 C9.5,3.44771525 9.94771525,3 10.5,3 C14.6421356,3 18,6.35786438 18,10.5 C18,12.2079059 17.4291232,13.7824764 16.4677788,15.0433022 L20.7053268,19.2819955 C21.0975365,19.6743112 21.099495,20.3084215 20.7035788,20.7044447 C20.3104038,21.097726 19.6739405,21.0987257 19.281514,20.7061931 L15.0438371,16.4673709 C13.7829218,17.4289617 12.2081474,18 10.5,18 C6.35786438,18 3,14.6421356 3,10.5 C3,9.94771525 3.44771525,9.5 4,9.5 C4.55228475,9.5 5,9.94771525 5,10.5 Z M3.8816249,7.15565866 L1.79051428,8.40055109 C1.61561204,8.50343476 1.35325868,8.35168134 1.39955633,8.15877446 L2.01685836,5.83617558 C2.03743509,5.75386864 2.00656999,5.66898961 1.94483979,5.61497568 L0.0800732456,4.14888337 C-0.0742522614,4.02027878 0.00805467568,3.68590685 0.211249927,3.67047429 L2.65473712,3.47756741 C2.74218824,3.47242323 2.81420681,3.4184093 2.84764401,3.34381864 L3.74015985,1.13696389 C3.8198947,0.954345371 4.18255964,0.954345371 4.25972239,1.13696389 L5.15481034,3.34381864 C5.18567544,3.4184093 5.2602661,3.47242323 5.34514513,3.47756741 L7.79120441,3.67047429 C7.99182757,3.68590685 8.07413451,4.02027878 7.919809,4.14888337 L6.05761455,5.61497568 C5.99331226,5.66898961 5.96501925,5.75386864 5.98559598,5.83617558 L6.61833056,8.15877446 C6.66462821,8.35168134 6.3868423,8.50343476 6.21194006,8.40055109 L4.12082944,7.15565866 C4.04623878,7.1119331 3.95364347,7.1119331 3.8816249,7.15565866 Z" id="Combined-Shape"/>
        </g>
    </g>
</svg>
