<svg xmlns="http://www.w3.org/2000/svg" xmlns:xlink="http://www.w3.org/1999/xlink" width="24px" height="24px" viewBox="0 0 24 24" version="1.1">
    <g id="Page-1-Copy" stroke="none" stroke-width="1" fill="none" fill-rule="evenodd">
        <g id="ic_fav_24" fill="#757575">
            <path d="M15.8295709,14.7780329 L16.6840024,18.4895397 L13.1293674,16.6407779 L13.1233714,16.6507658 C12.3938567,16.2502506 11.628366,16.2502506 10.8988514,16.6507658 L10.8928554,16.6407779 L7.33222433,18.4895397 L8.19465054,14.7640498 C8.41050693,13.8661369 8.15567647,13.0591139 7.43515585,12.4438587 L4.87985595,10.03078 L8.44348499,9.68320079 C9.35387928,9.61028905 10.0913886,9.06594804 10.4501499,8.19799879 L11.9991193,4.89699503 L13.5890615,8.27890085 C13.9058508,9.06295167 14.6453587,9.61028905 15.5897304,9.68619716 L19.1343721,10.1536313 L16.5490921,12.4748212 C15.8645476,13.0661054 15.6117158,13.8691332 15.8295709,14.7780329 L15.8295709,14.7780329 Z M21.298932,10.7069614 C22.4571614,9.66622134 22.1453688,8.67542082 20.6213828,8.47566265 L15.7386314,7.83443892 C15.4967923,7.8144631 15.3628814,7.71458402 15.2709425,7.48885729 L13.1793341,3.03824525 C12.5297663,1.6579163 11.4694717,1.64992597 10.8179052,3.03824525 L8.73229284,7.48885729 C8.63935467,7.71458402 8.5064431,7.8144631 8.26260533,7.83443892 L3.40983399,8.30686699 C1.87685391,8.45668562 1.54207665,9.43450186 2.66233132,10.4912226 L6.22795903,13.8571478 C6.41383536,14.0149567 6.44081741,14.1078443 6.3838553,14.3455565 L5.2426146,19.2765869 C4.89384664,20.7827635 5.72229546,21.4199921 7.0893859,20.7098518 L11.7502849,18.2887828 C11.9581466,18.1619363 12.0630768,18.1619363 12.2709385,18.2887828 L16.9258415,20.7098518 C18.2859366,21.4159969 19.1193821,20.7777696 18.7726128,19.2765869 L17.6373681,14.3455565 C17.580406,14.1078443 17.6083874,14.0149567 17.792265,13.8571478 L21.298932,10.7069614 Z" id="Fill-1"/>
        </g>
    </g>
</svg>
