<svg xmlns="http://www.w3.org/2000/svg" xmlns:xlink="http://www.w3.org/1999/xlink" width="16px" height="16px" viewBox="0 0 16 16" version="1.1">
    <g id="Page-1" stroke="none" stroke-width="1" fill="none" fill-rule="evenodd">
        <g id="Main" transform="translate(-94.000000, -544.000000)" fill="#FFFFFF">
            <g id="Fab.Big" transform="translate(74.000000, 528.000000)">
                <g id="Icon-32" transform="translate(12.000000, 8.000000)">
                    <path d="M15,15 L9.00087166,15 C8.44463086,15 8,15.4477153 8,16 C8,16.5561352 8.4481055,17 9.00087166,17 L15,17 L15,22.9991283 C15,23.5553691 15.4477153,24 16,24 C16.5561352,24 17,23.5518945 17,22.9991283 L17,17 L22.9991283,17 C23.5553691,17 24,16.5522847 24,16 C24,15.4438648 23.5518945,15 22.9991283,15 L17,15 L17,9.00087166 C17,8.44463086 16.5522847,8 16,8 C15.4438648,8 15,8.4481055 15,9.00087166 L15,15 Z" id="Combined-Shape"/>
                </g>
            </g>
        </g>
    </g>
</svg>
